<svg width="96" height="96" viewBox="0 0 96 96" fill="none" xmlns="http://www.w3.org/2000/svg">
<rect width="96" height="96" fill="white"/>
<path d="M24 58.2126H37.1179C37.5909 62.8661 40.5937 67.446 48.6562 67.446C56.0071 67.446 59.088 64.0533 59.088 60.6607C59.088 57.268 57.2698 54.9023 50.7131 53.7974L43.4447 52.6145C31.0384 50.5651 26.0612 45.1186 26.0612 35.8073C26.0612 26.4959 34.4361 19 47.9489 19C63.0412 19 70.4701 27.2845 71.4986 36.8342H58.3807C57.5909 32.3366 54.6662 28.5497 47.8708 28.5497C41.4702 28.5497 38.9404 31.8643 38.9404 34.7847C38.9404 38.3333 40.9148 39.9928 47.4759 41.0977L54.1151 42.1246C66.2827 44.0961 73 49.6985 73 59.4821C73 70.0544 64.0696 77 48.8168 77C33.5639 77 24.7117 69.1791 24 58.2126Z" fill="#121212"/>
</svg>
